<?xml version="1.0" encoding="UTF-8"?>
<svg version="1.1" viewBox="0 0 137 137" xmlns="http://www.w3.org/2000/svg">
<title>Dell_Logo</title>
<desc>Created with Sketch.</desc>
<g fill="none" fill-rule="evenodd">
<g transform="translate(-813 -4696)" fill="#F2F2F2" fill-rule="nonzero">
<path d="m881.5 4696c37.826 0 68.496 30.674 68.496 68.508 0 37.822-30.67 68.492-68.496 68.492-37.822 0-68.504-30.67-68.504-68.492 0-37.835 30.682-68.508 68.504-68.508zm0 7.4031c-16.865 0-32.139 6.841-43.198 17.908-11.063 11.042-17.899 26.324-17.899 43.198 0 16.861 6.8367 32.133 17.899 43.179 11.058 11.052 26.332 17.906 43.198 17.906 16.87 0 32.152-6.8536 43.193-17.906 11.058-11.046 17.88-26.317 17.88-43.179 0-16.874-6.822-32.156-17.88-43.198-11.042-11.067-26.324-17.908-43.193-17.908zm-8.4805 42.77l5.725 4.5059-14.166 11.134 2.7225 2.1308 14.162-11.128 5.7334 4.4933-14.164 11.147 2.7183 2.135 14.177-11.149v-10.222h10.277v20.862h10.252v8.6349h-20.529v-10.26l-16.908 13.313-15.453-12.166c-2.2298 5.3565-7.6179 9.077-13.823 9.077h-13.225v-29.461h13.225c6.9336 0 11.93 4.409 13.819 9.1065l15.457-12.153zm50.455 3.0467v20.866h10.248v8.6307h-20.535v-29.497h10.288zm-80.771 8.4706h-2.2951v12.524h2.2298c3.4868 0 6.4641-1.895 6.4641-6.264 0-3.9921-2.6488-6.2598-6.3988-6.2598z"/>
</g>
</g>
</svg>
